<?xml version="1.0" standalone="no"?><!DOCTYPE svg PUBLIC "-//W3C//DTD SVG 1.1//EN" "http://www.w3.org/Graphics/SVG/1.1/DTD/svg11.dtd"><svg t="1716629642628" class="icon" viewBox="0 0 1024 1024" version="1.1" xmlns="http://www.w3.org/2000/svg" p-id="8925" xmlns:xlink="http://www.w3.org/1999/xlink" width="500" height="500"><path d="M594.64629313 139.21783432C569.47302964 131.27626918 542.50167641 126.93088433 514.63127829 126.93088433c-81.36358214 0-154.18623642 36.71100889-202.88451316 94.54957777l125.1171113 105.18827755z" fill="#1A73E8" p-id="8926"></path><path d="M311.74676513 221.4804621a263.94466003 263.94466003 0 0 0-62.03411266 170.21920698c0 49.7471627 9.88949595 90.20419292 26.22214943 126.31583753l160.92907453-191.34676697z" fill="#EA4335" p-id="8927"></path><path d="M514.63127829 290.55709426a101.35235232 101.35235232 0 0 1 77.31787943 166.77286778l157.63257563-187.45090534a264.97856149 264.97856149 0 0 0-155.08528129-130.51138133L437.01371672 326.81858071A100.99273375 100.99273375 0 0 1 514.63127829 290.55709426" fill="#4285F4" p-id="8928"></path><path d="M514.63127829 493.14192528c-55.89063729 0-101.2924159-45.40177782-101.29241589-101.29241512a100.39337024 100.39337024 0 0 1 23.67485432-65.03092944L275.93480189 518.16534769c27.57071675 60.98522674 73.27217672 109.98318484 120.32220323 171.71761614l195.6921526-232.55300179A101.17254304 101.17254304 0 0 1 514.63127829 493.14192528" fill="#FBBC04" p-id="8929"></path><path d="M588.0532953 753.26564382c88.4061024-138.15326509 191.34676775-200.93658156 191.34676775-361.56597474 0-44.05321051-10.7885416-85.55912593-29.8183297-122.12029374L396.4068462 689.88296383c14.98408538 19.62915161 30.11801107 40.45703025 44.80241431 63.53252106 53.64302511 83.0118316 38.80878079 132.75899428 73.42201778 132.75899428s19.77899268-49.89700375 73.42201701-132.90883536" fill="#34A853" p-id="8930"></path></svg>