<?xml version="1.0" standalone="no"?><!DOCTYPE svg PUBLIC "-//W3C//DTD SVG 1.1//EN" "http://www.w3.org/Graphics/SVG/1.1/DTD/svg11.dtd"><svg t="1716280613835" class="icon" viewBox="0 0 1024 1024" version="1.1" xmlns="http://www.w3.org/2000/svg" p-id="4723" xmlns:xlink="http://www.w3.org/1999/xlink" width="200" height="200"><path d="M960 384A320 320 0 1 1 320 384a320 320 0 0 1 640 0z" fill="#E8F7FF" p-id="4724"></path><path d="M512 128c-122.944 0-232.32 57.728-302.72 147.712l-50.432-39.424A447.296 447.296 0 0 1 512 64a447.296 447.296 0 0 1 353.152 172.288l-50.432 39.424A383.296 383.296 0 0 0 512 128z m-302.72 620.288A383.296 383.296 0 0 0 512 896c122.88 0 232.32-57.728 302.72-147.712l50.432 39.424A447.232 447.232 0 0 1 512 960a447.296 447.296 0 0 1-353.152-172.288l50.432-39.424zM361.344 393.344A32 32 0 0 1 384 384h192a32 32 0 0 1 32 32V384h192v64h-64v256h-64V448h-64v256h-64V448H512v128H448V448h-32v256h-64v-31.872A32 32 0 0 1 320 704H128a32 32 0 0 1-32-32V384h64v256H192V512h64v128h32V384h64v31.872a32 32 0 0 1 9.344-22.528zM800 448v64a64 64 0 0 0 64 64h64v64h-128v64h128a64 64 0 0 0 64-64V576a64 64 0 0 0-64-64h-64V448h128V384h-128a64 64 0 0 0-64 64z" fill="#2386F6" p-id="4725"></path></svg>