<?xml version="1.0" standalone="no"?><!DOCTYPE svg PUBLIC "-//W3C//DTD SVG 1.1//EN" "http://www.w3.org/Graphics/SVG/1.1/DTD/svg11.dtd"><svg t="1716474089852" class="icon" viewBox="0 0 1024 1024" version="1.1" xmlns="http://www.w3.org/2000/svg" p-id="6412" xmlns:xlink="http://www.w3.org/1999/xlink" width="500" height="500"><path d="M912 912v-768H271.232l-3.776-10.656A80.032 80.032 0 0 0 112 160v672A80 80 0 0 0 192 912h720z" fill="#FFFFFF" p-id="6413"></path><path d="M128 832a64 64 0 0 0 64 64h704V160H288v672H256a64 64 0 1 0-128 0z m0-71.552A95.648 95.648 0 0 1 192 736c24.576 0 47.04 9.248 64 24.448V148.928l-3.648-10.24A64.032 64.032 0 0 0 128 160v600.448zM282.56 128H928v800H192a96 96 0 0 1-96-96V160a96 96 0 0 1 186.56-32z" fill="#707070" p-id="6414" data-spm-anchor-id="a313x.search_index.0.i33.24163a81l2buop" class="selected"></path><path d="M320 736V192h160c85.344 42.656 128 85.344 128 128 0 27.616-82.592 30.496-128 144-64 160-160 272-160 272z m256-128v128c0 21.344-10.656 64-32 128-64-21.344-96-53.344-96-96s42.656-96 128-160z m288-256v512h-128c-74.656-85.344-85.344-160-32-224 53.344-64 53.344-106.656 0-128l160-160z" fill="#707070" p-id="6415" data-spm-anchor-id="a313x.search_index.0.i35.24163a81l2buop" class=""></path><path d="M320 224.288L325.44 224c80-3.2 176 44.864 112 96-24.672 19.712-71.648 58.816-80 96-13.344 59.264 16 96-16 112-7.52 3.744-14.656 7.232-21.44 10.528v-314.24z m544 604.416c-71.136-52.224-106.88-104.48-107.2-156.704 0-17.92 24-31.584 32.64-64 6.784-25.408-5.088-67.872 16-96A1107.104 1107.104 0 0 1 864 440.576v388.16z" fill="#bfbfbf" p-id="6416" data-spm-anchor-id="a313x.search_index.0.i34.24163a81l2buop" class=""></path></svg>