<?xml version="1.0" standalone="no"?><!DOCTYPE svg PUBLIC "-//W3C//DTD SVG 1.1//EN" "http://www.w3.org/Graphics/SVG/1.1/DTD/svg11.dtd"><svg t="1717039762271" class="icon" viewBox="0 0 1024 1024" version="1.1" xmlns="http://www.w3.org/2000/svg" p-id="5390" xmlns:xlink="http://www.w3.org/1999/xlink" width="500" height="500"><path d="M982.7 758.4h-72.4V688c0-19.4-16.2-35.2-36.2-35.2-20 0-36.2 15.8-36.2 35.2v70.4h-72.4c-20 0-36.2 15.8-36.2 35.2s16.2 35.2 36.2 35.2h72.4v70.4c0 19.4 16.2 35.2 36.2 35.2 20 0 36.2-15.8 36.2-35.2v-70.4h72.4c20 0 36.2-15.8 36.2-35.2s-16.2-35.2-36.2-35.2zM729.2 336c0 19.4-16.2 35.2-36.2 35.2-20 0-36.2-15.8-36.2-35.2s16.2-35.2 36.2-35.2c20 0 36.2 15.8 36.2 35.2z m-144.8 0c0 58.2 48.7 105.6 108.6 105.6 59.9 0 108.6-47.4 108.6-105.6S752.9 230.4 693 230.4c-59.9 0-108.6 47.4-108.6 105.6z m159.3 248.1L617 491.8c-19.2-14-46-14-65.2 0l-111.5 81.3-148.7-115.7c-18.6-14.5-44.4-15.6-64.3-2.6L77.5 552.7V160H874v387.2c0 19.4 16.2 35.2 36.2 35.2 20 0 36.2-15.8 36.2-35.2V157c0-37.2-31.1-67.4-69.4-67.4H74.5c-38.3 0-69.4 30.3-69.4 67.4v639.5c0 37.2 31.1 67.4 69.4 67.4h546.1c20 0 36.2-15.8 36.2-35.2 0-19.4-16.2-35.2-36.2-35.2H77.5v-156l179.2-117.1 182.2 141.7L584.4 556l115.8 84.5c16.1 11.7 38.7 8.5 50.7-7 12-15.6 8.8-37.7-7.2-49.4z" fill="#515151" p-id="5391" data-spm-anchor-id="a313x.search_index.0.i0.7c503a81v3WcOP" class="selected"></path></svg>