<?xml version="1.0" standalone="no"?><!DOCTYPE svg PUBLIC "-//W3C//DTD SVG 1.1//EN" "http://www.w3.org/Graphics/SVG/1.1/DTD/svg11.dtd"><svg t="1716922265452" class="icon" viewBox="0 0 1024 1024" version="1.1" xmlns="http://www.w3.org/2000/svg" p-id="34536" xmlns:xlink="http://www.w3.org/1999/xlink" width="500" height="500"><path d="M919.055901 744.149068v50.881988c0 19.080745 0 31.801242-6.360249 44.521739-6.360248 12.720497-12.720497 19.080745-19.080745 31.801242-6.360248 6.360248-25.440994 12.720497-44.521739 12.720497V954.037267c0 19.080745-6.360248 31.801242-19.080746 50.881988-12.720497 12.720497-31.801242 19.080745-50.881987 19.080745-19.080745 0-31.801242-6.360248-50.881988-19.080745-12.720497-12.720497-19.080745-31.801242-19.080745-50.881988v-69.962733H308.47205V954.037267c0 19.080745-6.360248 31.801242-19.080746 50.881988-12.720497 6.360248-31.801242 12.720497-50.881987 12.720497-19.080745 0-31.801242-6.360248-50.881988-19.080746-12.720497-12.720497-19.080745-31.801242-19.080745-50.881987v-69.962733c-19.080745 0-31.801242-6.360248-38.161491-12.720497-6.360248-6.360248-19.080745-19.080745-19.080745-31.801242-6.360248-12.720497-6.360248-25.440994-6.360249-44.52174V133.565217c0-19.080745 6.360248-38.161491 12.720497-50.881987 6.360248-19.080745 12.720497-31.801242 25.440994-44.521739 12.720497-12.720497 25.440994-19.080745 44.521739-31.801243 19.080745 0 31.801242-6.360248 50.881988-6.360248h540.621118c19.080745 0 38.161491 6.360248 50.881987 12.720497 19.080745 6.360248 31.801242 19.080745 44.521739 31.801242 19.080745 6.360248 25.440994 19.080745 31.801243 38.161491 6.360248 19.080745 12.720497 31.801242 12.720497 50.881987v610.583851zM372.074534 69.962733c-6.360248 0-19.080745 6.360248-25.440994 12.720497 0 0-6.360248 6.360248-6.360248 19.080745 0 12.720497 6.360248 19.080745 12.720497 25.440994 6.360248 6.360248 12.720497 12.720497 25.440994 12.720497h273.490683c6.360248 0 19.080745-6.360248 25.440994-12.720497 6.360248-6.360248 12.720497-12.720497 12.720497-25.440994 0-6.360248-6.360248-19.080745-12.720497-25.440994-6.360248-6.360248-12.720497-12.720497-25.440994-12.720497H372.074534zM270.310559 756.869565c12.720497 0 25.440994-6.360248 38.161491-12.720497 6.360248-12.720497 12.720497-25.440994 12.720497-38.16149 0-12.720497-6.360248-25.440994-12.720497-38.161491-12.720497-12.720497-19.080745-12.720497-38.161491-12.720497-12.720497 0-25.440994 6.360248-38.161491 12.720497-6.360248 12.720497-12.720497 19.080745-12.720497 38.161491 0 12.720497 6.360248 25.440994 12.720497 38.16149 12.720497 6.360248 25.440994 12.720497 38.161491 12.720497z m477.018634 0c12.720497 0 25.440994-6.360248 31.801242-12.720497 6.360248-6.360248 12.720497-19.080745 12.720497-31.801242s-6.360248-25.440994-12.720497-31.801242c-6.360248-6.360248-19.080745-12.720497-31.801242-12.720497s-25.440994 6.360248-31.801243 12.720497c-12.720497 0-12.720497 12.720497-12.720497 25.440994s6.360248 25.440994 12.720497 31.801242c6.360248 12.720497 19.080745 19.080745 31.801243 19.080745z m101.763975-553.341615H174.906832v273.490684h680.546584V203.52795z m0 0" fill="#2c2c2c" p-id="34537" data-spm-anchor-id="a313x.search_index.0.i58.10e63a81mWzr2P" class="selected"></path></svg>