<?xml version="1.0" standalone="no"?><!DOCTYPE svg PUBLIC "-//W3C//DTD SVG 1.1//EN" "http://www.w3.org/Graphics/SVG/1.1/DTD/svg11.dtd"><svg t="1716922195106" class="icon" viewBox="0 0 1024 1024" version="1.1" xmlns="http://www.w3.org/2000/svg" p-id="29785" xmlns:xlink="http://www.w3.org/1999/xlink" width="500" height="500"><path d="M780.16 32c84.704 0 153.6 70.048 153.6 156.16v699.744h39.04c28.288 0 51.2 23.296 51.2 52.032 0 28.768-22.912 52.064-51.2 52.064H51.2C22.912 992 0 968.704 0 939.936c0-28.736 22.912-52.032 51.2-52.032h53.856v-276.288c0-86.08 68.896-156.16 153.6-156.16h62.592V188.16c0-86.112 68.896-156.16 153.6-156.16zM321.248 775.808H207.456v112.096h113.792v-112.096zM780.16 136.128h-305.312c-28.224 0-51.2 23.328-51.2 52.032v699.744H831.36V188.16c0-28.704-22.976-52.064-51.2-52.064z m-44.608 523.136c13.952 0 25.28 11.52 25.28 25.728v54.4a25.536 25.536 0 0 1-25.28 25.728h-53.504a25.536 25.536 0 0 1-25.28-25.728v-54.4c0-14.208 11.296-25.728 25.28-25.728z m-414.304-99.68H258.656c-28.224 0-51.2 23.36-51.2 52.032v60.096h113.792v-112.128z m246.944-110.88c13.984 0 25.312 11.52 25.312 25.728v54.4a25.536 25.536 0 0 1-25.28 25.696h-53.504a25.536 25.536 0 0 1-25.312-25.728v-54.368c0-14.208 11.328-25.728 25.28-25.728z m167.36 0c13.952 0 25.28 11.52 25.28 25.728v54.4a25.536 25.536 0 0 1-25.28 25.696h-53.504a25.536 25.536 0 0 1-25.28-25.728v-54.368c0-14.208 11.296-25.728 25.28-25.728z m-167.36-211.072c13.984 0 25.312 11.52 25.312 25.728v54.368a25.536 25.536 0 0 1-25.28 25.728h-53.504a25.536 25.536 0 0 1-25.312-25.728v-54.4c0-14.176 11.328-25.696 25.28-25.696z m167.36 0c13.952 0 25.28 11.52 25.28 25.728v54.368a25.536 25.536 0 0 1-25.28 25.728h-53.504a25.536 25.536 0 0 1-25.28-25.728v-54.4c0-14.176 11.296-25.696 25.28-25.696z" fill="#2c2c2c" p-id="29786" data-spm-anchor-id="a313x.search_index.0.i48.10e63a81mWzr2P" class="selected"></path></svg>