<?xml version="1.0" standalone="no"?><!DOCTYPE svg PUBLIC "-//W3C//DTD SVG 1.1//EN" "http://www.w3.org/Graphics/SVG/1.1/DTD/svg11.dtd"><svg t="1716922170980" class="icon" viewBox="0 0 1137 1024" version="1.1" xmlns="http://www.w3.org/2000/svg" p-id="28514" xmlns:xlink="http://www.w3.org/1999/xlink" width="555.17578125" height="500"><path d="M56.888889 625.777778m56.888889 0l398.222222 0q56.888889 0 56.888889 56.888889l0 56.888889q0 56.888889-56.888889 56.888888l-398.222222 0q-56.888889 0-56.888889-56.888888l0-56.888889q0-56.888889 56.888889-56.888889Z" fill="#2c2c2c" p-id="28515"></path><path d="M1061.347556 270.819556a142.023111 142.023111 0 0 0-137.272889-213.105778A170.467556 170.467556 0 0 0 625.777778 170.666667c0 6.485333 0.455111 12.970667 1.308444 19.399111A198.627556 198.627556 0 0 0 711.111111 568.888889a190.72 190.72 0 0 0 56.888889-9.671111V995.555556a28.444444 28.444444 0 0 0 28.444444 28.444444h56.888889a28.444444 28.444444 0 0 0 28.444445-28.444444V616.391111c18.403556 5.916444 37.546667 9.102222 56.888889 9.386667a198.456889 198.456889 0 0 0 122.680889-354.958222zM597.333333 853.333333H28.444444a28.444444 28.444444 0 0 0-28.444444 28.444445v113.777778a28.444444 28.444444 0 0 0 56.888889 0v-28.444445h512v28.444445a28.444444 28.444444 0 0 0 56.888889 0v-113.777778a28.444444 28.444444 0 0 0-28.444445-28.444445z" fill="#2c2c2c" p-id="28516"></path></svg>