<?xml version="1.0" standalone="no"?><!DOCTYPE svg PUBLIC "-//W3C//DTD SVG 1.1//EN" "http://www.w3.org/Graphics/SVG/1.1/DTD/svg11.dtd"><svg t="1716922090387" class="icon" viewBox="0 0 1024 1024" version="1.1" xmlns="http://www.w3.org/2000/svg" p-id="24766" xmlns:xlink="http://www.w3.org/1999/xlink" width="500" height="500"><path d="M827.742873 960.300043c-0.084997 38.138776-9.874683 62.353-46.203518 62.288003-36.268837-0.079997-44.203582-24.444216-44.118585-62.607991l-1.149963-361.267413c-1.324958 0.149995-102.911699-13.824556-137.125602-116.071277 0 0 41.638665-482.993508 198.092646-482.60852 39.933719 0.084997 28.519085 105.723609 28.519085 105.723609L827.742873 960.300043zM363.651759 473.42366l-18.536405 0 26.131162 488.065345c0 38.168775-34.450895 62.507995-70.759731 62.507995s-68.862791-24.339219-68.862791-62.507995l27.179129-487.59536-19.604371-0.384988c-14.891522 0-86.782217-131.89777-86.782217-154.93703l33.768917-316.191858c0.087997 0.404987 47.315483 1.854941 47.315483 1.854941l-0.659979 208.205321c0 23.979231-0.63998 42.388641 23.189256 42.388641 23.826236 0 24.169225-18.431408 24.169225-42.388641L280.199435 4.234709l64.957916 0 0 210.980233c0 23.976231 3.134899 39.27374 26.964136 39.27374 23.829235 0 23.424248-15.296509 23.424248-39.27374L395.545735 4.234709c0 0 37.330803 0 39.420735 0l33.215934 314.336918C468.182406 341.803881 378.351287 473.42366 363.651759 473.42366z" fill="#2c2c2c" p-id="24767"></path></svg>