<?xml version="1.0" standalone="no"?><!DOCTYPE svg PUBLIC "-//W3C//DTD SVG 1.1//EN" "http://www.w3.org/Graphics/SVG/1.1/DTD/svg11.dtd"><svg t="1716922788893" class="icon" viewBox="0 0 1126 1024" version="1.1" xmlns="http://www.w3.org/2000/svg" p-id="37664" data-spm-anchor-id="a313x.search_index.0.i60.10e63a81mWzr2P" xmlns:xlink="http://www.w3.org/1999/xlink" width="549.8046875" height="500"><path d="M765.464576 892.245333a72.567467 72.567467 0 0 1-60.859733-33.9968c-15.701333-24.814933-36.283733-47.957333-62.532267-70.656-40.106667-34.645333-88.849067-63.8976-149.162667-89.7024a847.633067 847.633067 0 0 0-115.541333-39.458133c-28.2624 31.061333-59.4944 53.6576-94.958933 68.7104a244.155733 244.155733 0 0 1-98.542934 19.456c-52.053333-0.512-102.263467-14.916267-149.265066-42.9056a70.997333 70.997333 0 0 1-32.699734-76.049067 71.953067 71.953067 0 0 1 60.962134-55.9104c16.042667-2.048 31.8464 1.297067 45.533866 9.4208 17.544533 10.581333 36.9664 17.646933 57.207467 20.8896 33.655467 5.5296 62.907733-2.389333 89.3952-23.8592 16.896-13.653333 29.866667-31.5392 42.8032-50.141866 9.216-13.2096 16.896-27.5456 24.951467-42.666667l6.7584-12.629333c14.404267-26.146133 28.842667-52.667733 42.8032-78.370134 4.096-7.4752 8.192-14.984533 12.117333-22.528a133.2224 133.2224 0 0 0-58.2656 13.653334 119.842133 119.842133 0 0 0-41.301333 33.450666c-1.365333 1.7408-2.6624 3.6864-4.164267 5.8368l-1.9456 2.798934a71.850667 71.850667 0 0 1-76.049067 29.252266 71.3728 71.3728 0 0 1-53.998933-60.0064c-2.56-19.0464 2.3552-37.341867 14.506667-54.237866 42.2912-58.914133 100.010667-95.709867 171.451733-109.226667 30.754133-5.9392 62.907733-6.382933 98.2016-1.4336 36.0448 5.051733 72.635733 15.803733 111.752533 33.041067 28.535467 12.561067 54.340267 20.411733 78.9504 23.9616 34.645333 5.154133 62.395733 1.604267 87.381334-11.0592 16.145067-7.850667 29.832533-20.002133 39.458133-35.157334a71.168 71.168 0 0 1 74.6496-31.095466c29.457067 6.0416 51.950933 30.0032 56.149333 59.8016v0.1024c2.6624 19.217067-2.389333 37.853867-14.7456 55.3984-39.355733 54.852267-93.627733 89.258667-161.143466 102.4-31.266133 6.144-64 6.621867-99.601067 1.604266l-64.1024 127.556267-1.9456 3.754667c26.146133 10.786133 51.541333 22.698667 75.434667 35.498666 62.020267 33.245867 112.503467 70.2464 154.3168 113.3568 20.821333 21.435733 39.5264 44.8512 55.808 69.9392a72.704 72.704 0 0 1 6.2464 67.345067 72.328533 72.328533 0 0 1-66.013867 43.861333z" fill="#2c2c2c" p-id="37665" data-spm-anchor-id="a313x.search_index.0.i62.10e63a81mWzr2P" class="selected"></path><path d="M378.972843 614.331733c45.738667 11.605333 89.838933 26.4192 130.935466 43.963734 64.4096 27.5456 116.872533 59.153067 160.3584 96.597333 29.5936 25.4976 52.701867 51.746133 70.792534 80.213333 6.4512 10.24 18.602667 15.701333 29.525333 13.482667a28.8768 28.8768 0 0 0 21.2992-16.9984 29.218133 29.218133 0 0 0-2.6624-27.306667c-14.404267-22.391467-31.402667-43.690667-50.449067-63.146666-38.7072-39.936-85.742933-74.3424-143.803733-105.403734a800.6656 800.6656 0 0 0-88.405333-40.482133l-0.546134-0.2048c-1.399467-0.512-2.594133-1.160533-3.754666-1.706667l-1.194667-0.546133-20.002133-9.352533 9.898666-19.797334 8.465067-16.657066 4.027733-7.748267 69.358934-138.001067a25.1904 25.1904 0 0 1 27.7504-14.609066h0.136533c35.328 6.144 67.003733 6.314667 96.768 0.512 57.2416-11.093333 101.102933-38.912 134.382933-85.162667 5.973333-8.533333 8.260267-16.042667 7.0656-24.302933a28.5696 28.5696 0 0 0-51.950933-11.639467 142.165333 142.165333 0 0 1-56.251733 50.414933c-32.802133 16.7936-69.9392 21.845333-113.186134 15.428267-28.3648-4.232533-57.856-13.038933-89.9072-27.2384-35.498667-15.598933-68.4032-25.258667-100.4544-29.764267-30.651733-4.334933-58.197333-3.9936-84.206933 0.955734a233.2672 233.2672 0 0 0-81.5104 31.607466 230.161067 230.161067 0 0 0-63.146667 60.586667c-5.7344 7.953067-7.850667 15.36-6.792533 23.415467v0.1024c1.706667 11.4688 10.069333 20.821333 21.2992 23.688533h0.1024a28.228267 28.228267 0 0 0 30.481067-11.741867l0.170666-0.3072c0.546133-0.887467 1.194667-1.706667 1.706667-2.491733 1.7408-2.4576 3.6864-5.358933 5.9392-8.157867a163.84 163.84 0 0 1 55.9104-45.294933c34.133333-16.9984 71.68-22.050133 114.926933-15.496533l29.218134 4.4032-13.2096 26.453333a52.6336 52.6336 0 0 0-2.286934 4.846933l-0.512 1.6384-0.887466 1.501867-24.200534 44.407467c-13.9264 25.7024-28.4672 52.394667-42.9056 78.5408-2.116267 3.959467-4.3008 8.0896-6.587733 12.117333-8.260267 15.633067-16.861867 31.6416-27.648 47.035733-14.165333 20.343467-29.764267 41.745067-50.926933 58.914134-36.078933 29.252267-77.585067 40.379733-123.357867 32.938666a206.301867 206.301867 0 0 1-72.362667-26.350933 27.989333 27.989333 0 0 0-18.090666-3.754667H68.154709a28.3648 28.3648 0 0 0-24.132266 22.152534 28.091733 28.091733 0 0 0 12.629333 30.208c40.96 24.337067 82.705067 36.352 127.726933 36.864a198.997333 198.997333 0 0 0 81.237334-15.9744c31.8464-13.585067 59.733333-34.474667 85.1968-63.8976a26.624 26.624 0 0 1 28.16-9.454934z" fill="#2c2c2c" p-id="37666" data-spm-anchor-id="a313x.search_index.0.i61.10e63a81mWzr2P" class="selected"></path><path d="M580.803243 255.5904a109.021867 109.021867 0 0 1-77.994667-32.256 109.909333 109.909333 0 0 1-32.392533-78.301867 110.250667 110.250667 0 0 1 32.4608-78.609066C523.390976 45.704533 551.346176 34.0992 580.496043 34.133333h0.2048a110.592 110.592 0 0 1 78.609066 188.893867c-20.6848 20.821333-48.8448 32.426667-78.165333 32.3584-0.238933 0.2048-0.341333 0.2048-0.341333 0.2048z m-0.443734-178.312533c-17.749333 0-34.474667 6.9632-47.104 19.6608-12.834133 12.731733-20.002133 30.037333-19.899733 48.128a67.584 67.584 0 0 0 67.447467 67.584h0.068266c18.193067 0 35.089067-6.9632 47.786667-19.7632a67.584 67.584 0 0 0 0.068267-95.573334 67.8912 67.8912 0 0 0-48.366934-19.933866c0.1024-0.1024 0.1024-0.1024 0-0.1024z" fill="#4D4D4D" p-id="37667"></path><path d="M580.803243 255.5904a109.021867 109.021867 0 0 1-77.994667-32.256 109.909333 109.909333 0 0 1-32.392533-78.301867 110.250667 110.250667 0 0 1 32.4608-78.609066C523.390976 45.704533 551.346176 34.0992 580.496043 34.133333h0.2048a110.592 110.592 0 0 1 78.609066 188.893867c-20.6848 20.821333-48.8448 32.426667-78.165333 32.3584-0.238933 0.2048-0.341333 0.2048-0.341333 0.2048z m-0.443734-178.312533c-17.749333 0-34.474667 6.9632-47.104 19.6608-12.834133 12.731733-20.002133 30.037333-19.899733 48.128a67.584 67.584 0 0 0 67.447467 67.584h0.068266c18.193067 0 35.089067-6.9632 47.786667-19.7632a67.584 67.584 0 0 0 0.068267-95.573334 67.8912 67.8912 0 0 0-48.366934-19.933866c0.1024-0.1024 0.1024-0.1024 0-0.1024zM984.634709 989.866667a109.021867 109.021867 0 0 1-77.960533-32.256 109.909333 109.909333 0 0 1-32.426667-78.301867 110.250667 110.250667 0 0 1 32.494934-78.6432c20.48-20.6848 48.4352-32.290133 77.550933-32.256h0.238933a110.592 110.592 0 0 1 78.609067 188.893867c-20.718933 20.821333-48.878933 32.426667-78.199467 32.3584-0.238933 0.2048-0.3072 0.2048-0.3072 0.2048z m-0.443733-178.312534c-17.749333 0-34.440533 6.9632-47.104 19.6608-12.8 12.731733-19.968 30.037333-19.899733 48.128a67.584 67.584 0 0 0 67.447466 67.584h0.068267c18.2272 0 35.1232-6.9632 47.786667-19.797333a67.584 67.584 0 0 0 0.1024-95.573333 67.8912 67.8912 0 0 0-48.401067-19.899734c0.1024-0.1024 0.1024-0.1024 0-0.1024z" fill="#2c2c2c" p-id="37668" data-spm-anchor-id="a313x.search_index.0.i63.10e63a81mWzr2P" class="selected"></path></svg>