<?xml version="1.0" standalone="no"?><!DOCTYPE svg PUBLIC "-//W3C//DTD SVG 1.1//EN" "http://www.w3.org/Graphics/SVG/1.1/DTD/svg11.dtd"><svg t="1716625322642" class="icon" viewBox="0 0 1024 1024" version="1.1" xmlns="http://www.w3.org/2000/svg" p-id="2789" xmlns:xlink="http://www.w3.org/1999/xlink" width="500" height="500"><path d="M411.409 204.8c0-56.457 45.943-102.4 102.4-102.4s102.4 45.943 102.4 102.4-45.943 102.4-102.4 102.4-102.4-45.943-102.4-102.4z" fill="#707070" p-id="2790"></path><path d="M411.409 512c0-56.457 45.943-102.4 102.4-102.4s102.4 45.943 102.4 102.4-45.943 102.4-102.4 102.4-102.4-45.943-102.4-102.4z" fill="#707070" p-id="2791"></path><path d="M411.409 819.2c0-56.457 45.943-102.4 102.4-102.4s102.4 45.943 102.4 102.4-45.943 102.4-102.4 102.4-102.4-45.943-102.4-102.4z" fill="#707070" p-id="2792"></path></svg>