<?xml version="1.0" standalone="no"?><!DOCTYPE svg PUBLIC "-//W3C//DTD SVG 1.1//EN" "http://www.w3.org/Graphics/SVG/1.1/DTD/svg11.dtd"><svg t="1716732742968" class="icon" viewBox="0 0 1024 1024" version="1.1" xmlns="http://www.w3.org/2000/svg" p-id="7340" xmlns:xlink="http://www.w3.org/1999/xlink" width="500" height="500"><path d="M880.64 0H143.36A146.5344 146.5344 0 0 0 0 143.36v737.28A146.5344 146.5344 0 0 0 143.36 1024h737.28a146.5344 146.5344 0 0 0 143.36-143.36V143.36A143.36 143.36 0 0 0 880.64 0zM76.8 880.64V153.6h399.36v793.6H148.48a68.9664 68.9664 0 0 1-71.68-66.56z m870.4 0a67.7888 67.7888 0 0 1-66.56 66.56h-327.68V153.6h399.36v727.04z" p-id="7341" fill="#515151"></path></svg>