<?xml version="1.0" standalone="no"?><!DOCTYPE svg PUBLIC "-//W3C//DTD SVG 1.1//EN" "http://www.w3.org/Graphics/SVG/1.1/DTD/svg11.dtd"><svg t="1717076670694" class="icon" viewBox="0 0 1024 1024" version="1.1" xmlns="http://www.w3.org/2000/svg" p-id="4969" xmlns:xlink="http://www.w3.org/1999/xlink" width="500" height="500"><path d="M777.472 170.666667H246.528A76.074667 76.074667 0 0 0 170.666667 246.528v530.944A76.074667 76.074667 0 0 0 246.528 853.333333h530.944A76.074667 76.074667 0 0 0 853.333333 777.472V246.528A76.074667 76.074667 0 0 0 777.472 170.666667z m30.336 591.658666a45.653333 45.653333 0 0 1-45.525333 45.525334H261.674667a45.653333 45.653333 0 0 1-45.525334-45.525334V261.674667a45.653333 45.653333 0 0 1 45.525334-45.525334h500.608a45.653333 45.653333 0 0 1 45.525333 45.525334z" fill="#515151" p-id="4970"></path><path d="M745.984 247.338667h-237.738667v529.28h237.738667a30.549333 30.549333 0 0 0 30.677333-30.250667V277.589333a30.549333 30.549333 0 0 0-30.677333-30.250666z" fill="#515151" p-id="4971"></path></svg>