<?xml version="1.0" standalone="no"?><!DOCTYPE svg PUBLIC "-//W3C//DTD SVG 1.1//EN" "http://www.w3.org/Graphics/SVG/1.1/DTD/svg11.dtd"><svg t="1716964200098" class="icon" viewBox="0 0 1024 1024" version="1.1" xmlns="http://www.w3.org/2000/svg" p-id="4589" xmlns:xlink="http://www.w3.org/1999/xlink" width="500" height="500"><path d="M533.333333 859.733333l-298.666666-170.666666c-21.333333-12.8-46.933333-6.4-57.6 14.933333s-6.4 46.933333 14.933333 57.6l298.666667 170.666667c6.4 4.266667 14.933333 6.4 21.333333 6.4 14.933333 0 29.866667-8.533333 36.266667-21.333334 12.8-21.333333 6.4-46.933333-14.933334-57.6z" p-id="4590" fill="#8a8a8a"></path><path d="M846.933333 704c-10.666667-21.333333-38.4-27.733333-57.6-14.933333l-298.666666 170.666666c-21.333333 10.666667-27.733333 38.4-14.933334 57.6 8.533333 12.8 21.333333 21.333333 36.266667 21.333334 6.4 0 14.933333-2.133333 21.333333-6.4l298.666667-170.666667c21.333333-10.666667 27.733333-36.266667 14.933333-57.6zM533.333333 646.4l-298.666666-170.666667c-21.333333-12.8-46.933333-6.4-57.6 14.933334s-6.4 46.933333 14.933333 57.6l298.666667 170.666666c6.4 4.266667 14.933333 6.4 21.333333 6.4 14.933333 0 29.866667-8.533333 36.266667-21.333333 12.8-21.333333 6.4-46.933333-14.933334-57.6z" p-id="4591" fill="#8a8a8a"></path><path d="M846.933333 490.666667c-10.666667-21.333333-38.4-27.733333-57.6-14.933334l-298.666666 170.666667c-21.333333 10.666667-27.733333 38.4-14.933334 57.6 8.533333 12.8 21.333333 21.333333 36.266667 21.333333 6.4 0 14.933333-2.133333 21.333333-6.4l298.666667-170.666666c21.333333-10.666667 27.733333-36.266667 14.933333-57.6zM853.333333 294.4v-4.266667-4.266666c0-2.133333 0-2.133333-2.133333-4.266667 0-2.133333-2.133333-2.133333-2.133333-4.266667v-2.133333s0-2.133333-2.133334-2.133333c0-2.133333-2.133333-2.133333-2.133333-4.266667s-2.133333-2.133333-2.133333-2.133333l-2.133334-2.133334c-2.133333 0-2.133333-2.133333-4.266666-2.133333 0 0-2.133333 0-2.133334-2.133333l-298.666666-170.666667H533.333333c-2.133333 0-2.133333-2.133333-4.266666-2.133333s-2.133333 0-4.266667-2.133334h-25.6c-2.133333 0-2.133333 0-4.266667 2.133334-2.133333 0-2.133333 2.133333-4.266666 2.133333h-2.133334l-298.666666 170.666667s-2.133333 0-2.133334 2.133333c-2.133333 0-2.133333 2.133333-4.266666 2.133333s-2.133333 2.133333-2.133334 2.133334l-2.133333 2.133333c0 2.133333-2.133333 2.133333-2.133333 4.266667 0 0 0 2.133333-2.133334 2.133333v2.133333c0 2.133333-2.133333 2.133333-2.133333 4.266667s0 2.133333-2.133333 4.266667v25.6c0 2.133333 0 2.133333 2.133333 4.266666 0 2.133333 2.133333 2.133333 2.133333 4.266667v4.266667c2.133333 2.133333 2.133333 4.266667 4.266667 6.4l2.133333 2.133333c2.133333 2.133333 4.266667 4.266667 8.533334 6.4l298.666666 170.666667c4.266667 2.133333 6.4 4.266667 10.666667 4.266666s6.4 2.133333 10.666667 2.133334 6.4 0 10.666666-2.133334c4.266667 0 6.4-2.133333 10.666667-4.266666l298.666667-170.666667c2.133333-2.133333 6.4-4.266667 8.533333-6.4l2.133333-2.133333c2.133333-2.133333 4.266667-4.266667 4.266667-6.4v-2.133334-2.133333c0-2.133333 2.133333-2.133333 2.133333-4.266667s0-2.133333 2.133334-4.266666v-4.266667-4.266667-4.266666c4.266667-2.133333 4.266667-2.133333 4.266666-4.266667z m-341.333333 125.866667L298.666667 298.666667l213.333333-121.6L725.333333 298.666667l-213.333333 121.6z" p-id="4592" fill="#8a8a8a"></path></svg>