<?xml version="1.0" standalone="no"?><!DOCTYPE svg PUBLIC "-//W3C//DTD SVG 1.1//EN" "http://www.w3.org/Graphics/SVG/1.1/DTD/svg11.dtd"><svg t="1716487044927" class="icon" viewBox="0 0 1024 1024" version="1.1" xmlns="http://www.w3.org/2000/svg" p-id="22650" xmlns:xlink="http://www.w3.org/1999/xlink" width="500" height="500"><path d="M615.1168 43.2128c219.6992 0 384.0512 179.1488 365.9264 398.7456-17.92 217.088-207.6672 392.3968-424.9088 392.3968h-5.3248c14.2336 20.8384 28.8768 45.3632 44.1856 73.3696l7.2704 13.4144a38.4 38.4 0 1 1-67.6864 36.2496l-6.144-11.3664-11.9296-21.1456c-1.9456-3.3792-3.84-6.656-5.7344-9.7792l-10.9568-18.0224-5.2224-8.2944-9.8816-15.0016-9.0112-13.0048-8.192-11.1104-7.2192-9.216-6.2464-7.3728-5.12-5.632-4.0448-3.7888a12.1856 12.1856 0 0 0-3.7376-2.56h-0.6144l-11.0592 3.072c-180.9408 21.8624-312.8832 3.3792-396.0832-58.9824a38.4 38.4 0 1 1 46.08-61.44c50.688 38.0416 132.608 55.9104 245.7088 51.9168-91.8528-72.7552-145.7664-189.2352-135.0144-320 17.92-217.1904 207.6672-392.448 424.96-392.448z m0 76.8c-177.2544 0-333.7728 144.5376-348.416 321.9456-14.4384 174.8992 114.688 315.5968 289.4336 315.5968 177.2544 0 333.7216-144.5888 348.3648-321.9456 14.4384-174.8992-114.6368-315.5968-289.3824-315.5968z" fill="#515151" p-id="22651" data-spm-anchor-id="a313x.search_index.0.i27.7a7a3a81M0uLxn" class="selected"></path></svg>