<?xml version="1.0" standalone="no"?><!DOCTYPE svg PUBLIC "-//W3C//DTD SVG 1.1//EN" "http://www.w3.org/Graphics/SVG/1.1/DTD/svg11.dtd"><svg t="1717076237660" class="icon" viewBox="0 0 1024 1024" version="1.1" xmlns="http://www.w3.org/2000/svg" p-id="2820" xmlns:xlink="http://www.w3.org/1999/xlink" width="500" height="500"><path d="M1019.733333 529.066667c4.266667-8.533333 4.266667-21.333333 0-34.133334-4.266667-4.266667-4.266667-8.533333-8.533333-12.8l-128-128c-17.066667-17.066667-42.666667-17.066667-59.733333 0s-17.066667 42.666667 0 59.733334l55.466666 55.466666H554.666667V145.066667l55.466666 55.466666c8.533333 8.533333 17.066667 12.8 29.866667 12.8s21.333333-4.266667 29.866667-12.8c17.066667-17.066667 17.066667-42.666667 0-59.733333l-128-128c-4.266667-4.266667-8.533333-8.533333-12.8-8.533333-8.533333-4.266667-21.333333-4.266667-34.133334 0-4.266667 4.266667-8.533333 4.266667-12.8 8.533333l-128 128c-17.066667 17.066667-17.066667 42.666667 0 59.733333s42.666667 17.066667 59.733334 0L469.333333 145.066667V469.333333H145.066667l55.466666-55.466666c17.066667-17.066667 17.066667-42.666667 0-59.733334s-42.666667-17.066667-59.733333 0l-128 128c-4.266667 4.266667-8.533333 8.533333-8.533333 12.8-4.266667 8.533333-4.266667 21.333333 0 34.133334 4.266667 4.266667 4.266667 8.533333 8.533333 12.8l128 128c8.533333 8.533333 17.066667 12.8 29.866667 12.8s21.333333-4.266667 29.866666-12.8c17.066667-17.066667 17.066667-42.666667 0-59.733334L145.066667 554.666667H469.333333v324.266666l-55.466666-55.466666c-17.066667-17.066667-42.666667-17.066667-59.733334 0s-17.066667 42.666667 0 59.733333l128 128c4.266667 4.266667 8.533333 8.533333 12.8 8.533333 4.266667 4.266667 12.8 4.266667 17.066667 4.266667s12.8 0 17.066667-4.266667c4.266667-4.266667 8.533333-4.266667 12.8-8.533333l128-128c17.066667-17.066667 17.066667-42.666667 0-59.733333s-42.666667-17.066667-59.733334 0L554.666667 878.933333V554.666667h324.266666l-55.466666 55.466666c-17.066667 17.066667-17.066667 42.666667 0 59.733334 8.533333 8.533333 21.333333 12.8 29.866666 12.8s21.333333-4.266667 29.866667-12.8l128-128c4.266667-4.266667 8.533333-8.533333 8.533333-12.8z" p-id="2821" fill="#515151"></path></svg>