<?xml version="1.0" standalone="no"?><!DOCTYPE svg PUBLIC "-//W3C//DTD SVG 1.1//EN" "http://www.w3.org/Graphics/SVG/1.1/DTD/svg11.dtd"><svg t="1716732836995" class="icon" viewBox="0 0 1024 1024" version="1.1" xmlns="http://www.w3.org/2000/svg" p-id="11263" data-spm-anchor-id="a313x.search_index.0.i21.6e483a81MMDoZW" xmlns:xlink="http://www.w3.org/1999/xlink" width="500" height="500"><path d="M933.875 573.7980957L933.875 221.9609375c0-29.08630372-23.64807129-52.73437501-52.734375-52.734375l-738.28125 0c-29.08630372 0-52.73437501 23.64807129-52.734375 52.734375l0 580.078125c0 29.08630372 23.64807129 52.73437501 52.734375 52.734375L652.8996582 854.7734375c27.93273926 0 54.79431152-11.12365723 74.56970216-30.89904786l175.50659178-175.50659178C922.75134278 628.59240723 933.875 601.73083497 933.875 573.7980957z m-74.56970215 43.6706543L696.5703125 780.20373536 696.5703125 670.203125c0-29.08630372 23.64807129-52.73437501 52.734375-52.734375L859.30529786 617.46875zM142.859375 775.671875L142.859375 248.328125c0-14.58435059 11.78283692-26.3671875 26.3671875-26.3671875L854.7734375 221.9609375c14.58435059 0 26.3671875 11.78283692 26.3671875 26.3671875l0 316.40625-131.8359375 0c-58.25500489 0-105.46875 47.21374512-105.46875 105.46875l0 131.8359375-474.609375 0c-14.58435059 0-26.3671875-11.78283692-26.3671875-26.3671875z" p-id="11264" data-spm-anchor-id="a313x.search_index.0.i20.6e483a81MMDoZW" class="selected" fill="#515151"></path></svg>