<?xml version="1.0" standalone="no"?><!DOCTYPE svg PUBLIC "-//W3C//DTD SVG 1.1//EN" "http://www.w3.org/Graphics/SVG/1.1/DTD/svg11.dtd"><svg t="1716902768672" class="icon" viewBox="0 0 1024 1024" version="1.1" xmlns="http://www.w3.org/2000/svg" p-id="5981" xmlns:xlink="http://www.w3.org/1999/xlink" width="500" height="500"><path d="M768 916.5c-58.5 0-109.7-51.5-109.7-110.5 0-58.9 51.2-110.5 109.7-110.5S877.7 747.1 877.7 806c0 59-51.2 110.5-109.7 110.5zM329.1 548.3c-58.5 0-109.7-51.5-109.7-110.5 0-58.9 51.2-110.5 109.7-110.5s109.7 51.5 109.7 110.5c0.1 59-51.1 110.5-109.7 110.5zM658.3 253.8c-43.9 0-73.1-29.5-73.1-73.6s29.3-73.6 73.1-73.6 73.1 29.5 73.1 73.6-29.2 73.6-73.1 73.6zM950.9 474.7c-43.9 0-73.1-29.5-73.1-73.6s29.3-73.6 73.1-73.6 73.1 29.5 73.1 73.6-29.3 73.6-73.1 73.6z" fill="#515151" p-id="5982" data-spm-anchor-id="a313x.search_index.0.i2.10e63a81mWzr2P" class="selected"></path><path d="M73.1 327.4C29.3 327.4 0 298 0 253.8s29.3-73.6 73.1-73.6 73.1 29.5 73.1 73.6-29.2 73.6-73.1 73.6z" fill="#515151" p-id="5983" data-spm-anchor-id="a313x.search_index.0.i3.10e63a81mWzr2P" class="selected"></path><path d="M438.9 842.9c-43.9 0-73.1-29.5-73.1-73.6 0-44.2 29.3-73.6 73.1-73.6S512 725 512 769.2s-29.3 73.7-73.1 73.7z" fill="#515151" p-id="5984" data-spm-anchor-id="a313x.search_index.0.i5.10e63a81mWzr2P" class="selected"></path><path d="M658.3 548.3c-43.9 0-73.1-29.5-73.1-73.6s29.3-73.6 73.1-73.6 73.1 29.5 73.1 73.6-29.2 73.6-73.1 73.6z" fill="#515151" p-id="5985" data-spm-anchor-id="a313x.search_index.0.i6.10e63a81mWzr2P" class="selected"></path><path d="M146.3 916.5c-43.9 0-73.1-29.5-73.1-73.6 0-44.2 29.3-73.6 73.1-73.6s73.1 29.5 73.1 73.6-29.2 73.6-73.1 73.6z" fill="#515151" p-id="5986" data-spm-anchor-id="a313x.search_index.0.i4.10e63a81mWzr2P" class="selected"></path></svg>