<?xml version="1.0" standalone="no"?><!DOCTYPE svg PUBLIC "-//W3C//DTD SVG 1.1//EN" "http://www.w3.org/Graphics/SVG/1.1/DTD/svg11.dtd"><svg t="1716920730021" class="icon" viewBox="0 0 1026 1024" version="1.1" xmlns="http://www.w3.org/2000/svg" p-id="19285" xmlns:xlink="http://www.w3.org/1999/xlink" width="500.9765625" height="500"><path d="M1008.246154 234.261738L790.147453 16.572228c-20.254945-20.254945-52.99021-20.254945-72.631369 0L499.008192 234.261738c-20.254945 20.254945-20.254945 52.785614 0 72.631369l217.894106 217.68951c20.254945 20.254945 52.99021 20.254945 72.631368 0L1007.632368 306.893107c20.868731-19.845754 20.868731-52.376424 0.613786-72.631369zM754.138661 486.118681L539.108891 271.498102l215.02977-214.825175 215.029771 214.620579-215.029771 214.825175z m0 0" fill="#914aff" p-id="19286" data-spm-anchor-id="a313x.search_index.0.i25.10e63a81mWzr2P" class="selected"></path><path d="M371.136064 597.009391H58.923477C27.62038 597.009391 2.045954 622.583816 2.045954 653.886913v311.598801c0 31.303097 25.574426 56.877522 56.877523 56.877523h312.212587c31.303097 0 56.877522-25.574426 56.877522-56.877523V653.886913c0-31.916883-25.574426-56.877522-56.877522-56.877522z m0 367.862537H58.923477V653.273127h312.212587v311.598801z m0-877.918881H58.923477C27.62038 86.953047 2.045954 112.322877 2.045954 143.830569v311.598802c0 31.303097 25.574426 56.877522 56.877523 56.877522h312.212587c31.303097 0 56.877522-25.574426 56.877522-56.877522V143.830569c0-31.507692-25.574426-56.877522-56.877522-56.877522z m0 368.476324H58.923477V143.830569h312.212587v311.598802z m510.260939 141.58002H569.389011c-31.303097 0-56.877522 25.574426-56.877522 56.877522v311.598801c0 31.303097 25.574426 56.877522 56.877522 56.877523h312.212587c31.303097 0 56.877522-25.574426 56.877523-56.877523V653.886913c0-31.916883-25.574426-56.877522-57.082118-56.877522z m0 367.862537H569.389011V653.273127h312.212587v311.598801z m0 0" fill="#34afff" p-id="19287" data-spm-anchor-id="a313x.search_index.0.i26.10e63a81mWzr2P" class=""></path></svg>