<?xml version="1.0" standalone="no"?><!DOCTYPE svg PUBLIC "-//W3C//DTD SVG 1.1//EN" "http://www.w3.org/Graphics/SVG/1.1/DTD/svg11.dtd"><svg t="1717076507425" class="icon" viewBox="0 0 1024 1024" version="1.1" xmlns="http://www.w3.org/2000/svg" p-id="3899" xmlns:xlink="http://www.w3.org/1999/xlink" width="500" height="500"><path d="M476.056035 212.276508l23.670167 23.670167a51.013291 51.013291 0 0 1-72.132794 72.132794L317.353686 197.839747a51.013291 51.013291 0 0 1 0-72.132794L428.205568 14.85507a51.013291 51.013291 0 1 1 72.132794 72.132794l-22.700915 22.700915C783.054022 144.173764 1020.265827 403.321284 1020.265827 717.920252a51.013291 51.013291 0 0 1-102.026583 0c0-258.6884-192.575175-472.383078-442.183209-505.643744zM153.039874 411.840504h408.106331a153.039874 153.039874 0 0 1 153.039874 153.039874v306.079748a153.039874 153.039874 0 0 1-153.039874 153.039874H153.039874a153.039874 153.039874 0 0 1-153.039874-153.039874v-306.079748a153.039874 153.039874 0 0 1 153.039874-153.039874z m0 102.026582a51.013291 51.013291 0 0 0-51.013291 51.013292v306.079748a51.013291 51.013291 0 0 0 51.013291 51.013291h408.106331a51.013291 51.013291 0 0 0 51.013291-51.013291v-306.079748a51.013291 51.013291 0 0 0-51.013291-51.013292H153.039874z" fill="#515151" p-id="3900"></path></svg>