<?xml version="1.0" standalone="no"?><!DOCTYPE svg PUBLIC "-//W3C//DTD SVG 1.1//EN" "http://www.w3.org/Graphics/SVG/1.1/DTD/svg11.dtd"><svg t="1716536835266" class="icon" viewBox="0 0 1024 1024" version="1.1" xmlns="http://www.w3.org/2000/svg" p-id="8106" xmlns:xlink="http://www.w3.org/1999/xlink" width="500" height="500"><path d="M320 928c5.888 0 10.666667 4.778667 10.666667 10.666667v74.666666A10.666667 10.666667 0 0 1 320 1024h-74.666667a10.666667 10.666667 0 0 1-10.666666-10.666667V938.666667c0-5.888 4.778667-10.666667 10.666666-10.666667z m-234.666667 0c5.888 0 10.666667 4.778667 10.666667 10.666667v74.666666A10.666667 10.666667 0 0 1 85.333333 1024H10.666667A10.666667 10.666667 0 0 1 0 1013.333333V938.666667c0-5.888 4.778667-10.666667 10.666667-10.666667zM459.093333 455.68l536.405334 199.850667-196.266667 76.032 222.293333 222.293333c2.56 2.56 2.816 6.656 1.109334 10.24l-2.474667 3.498667-52.821333 52.821333a10.922667 10.922667 0 0 1-10.752 3.157333l-2.986667-1.877333L721.92 790.186667l-100.864 214.613333L459.093333 455.68zM85.333333 695.978667c5.888 0 10.666667 4.778667 10.666667 10.666666v74.666667A10.666667 10.666667 0 0 1 85.333333 791.978667H10.666667A10.666667 10.666667 0 0 1 0 781.312v-74.666667c0-5.888 4.778667-10.666667 10.666667-10.666666z m0-232.021334c5.888 0 10.666667 4.864 10.666667 10.666667v74.666667A10.666667 10.666667 0 0 1 85.333333 560.042667H10.666667A10.666667 10.666667 0 0 1 0 549.376v-74.666667c0-5.802667 4.778667-10.666667 10.666667-10.666666zM1013.333333 232.106667c5.888 0 10.666667 4.778667 10.666667 10.666666v74.666667a10.666667 10.666667 0 0 1-10.666667 10.666667H938.666667a10.666667 10.666667 0 0 1-10.666667-10.666667v-74.666667c0-5.888 4.778667-10.666667 10.666667-10.666666zM85.333333 232.021333c5.888 0 10.666667 4.778667 10.666667 10.666667v74.666667A10.666667 10.666667 0 0 1 85.333333 328.021333H10.666667A10.666667 10.666667 0 0 1 0 317.354667v-74.666667c0-5.888 4.778667-10.666667 10.666667-10.666667zM317.354667 0c5.802667 0 10.666667 4.778667 10.666666 10.666667V85.333333a10.666667 10.666667 0 0 1-10.666666 10.666667h-74.666667A10.666667 10.666667 0 0 1 232.021333 85.333333V10.666667c0-5.888 4.778667-10.666667 10.666667-10.666667z m695.978666 0c5.888 0 10.666667 4.778667 10.666667 10.666667V85.333333a10.666667 10.666667 0 0 1-10.666667 10.666667H938.666667A10.666667 10.666667 0 0 1 928 85.333333V10.666667c0-5.888 4.778667-10.666667 10.666667-10.666667zM85.333333 0c5.888 0 10.666667 4.778667 10.666667 10.666667V85.333333A10.666667 10.666667 0 0 1 85.333333 96H10.666667A10.666667 10.666667 0 0 1 0 85.333333V10.666667C0 4.778667 4.778667 0 10.666667 0z m464.042667 0c5.802667 0 10.666667 4.778667 10.666667 10.666667V85.333333a10.666667 10.666667 0 0 1-10.666667 10.666667h-74.666667A10.666667 10.666667 0 0 1 464.042667 85.333333V10.666667c0-5.888 4.778667-10.666667 10.666666-10.666667z m231.936 0c5.888 0 10.666667 4.778667 10.666667 10.666667V85.333333a10.666667 10.666667 0 0 1-10.666667 10.666667h-74.666667A10.666667 10.666667 0 0 1 695.978667 85.333333V10.666667c0-5.888 4.778667-10.666667 10.666666-10.666667z" fill="#000000" fill-opacity=".65" p-id="8107"></path></svg>