<?xml version="1.0" standalone="no"?><!DOCTYPE svg PUBLIC "-//W3C//DTD SVG 1.1//EN" "http://www.w3.org/Graphics/SVG/1.1/DTD/svg11.dtd"><svg t="1716713699376" class="icon" viewBox="0 0 1024 1024" version="1.1" xmlns="http://www.w3.org/2000/svg" p-id="4498" xmlns:xlink="http://www.w3.org/1999/xlink" width="500" height="500"><path d="M936.618667 341.742933L681.096533 87.313067c-24.9856-24.917333-38.912-24.917333-61.098666-2.730667a48669.627733 48669.627733 0 0 0-536.098134 533.7088c-19.456 19.387733-22.186667 38.775467 0 60.893867 88.8832 85.742933 174.967467 174.216533 263.850667 262.690133 8.328533 8.328533 16.725333 13.858133 27.784533 13.858133 16.657067 0 24.9856-11.0592 36.181334-19.387733l527.701333-525.448533c22.186667-30.446933 22.186667-41.506133-2.730667-69.154134z m-91.682134 63.624534l-441.617066 439.7056c-22.186667 22.186667-38.912 22.186667-61.098667 0L175.581867 679.253333c-16.657067-16.5888-24.9856-33.245867-8.328534-52.565333 13.858133-19.387733 24.9856-27.648 44.373334-5.5296 25.053867 27.648 52.8384 52.565333 77.824 80.213333 11.127467 11.0592 16.657067 13.789867 30.583466 0 30.5152-30.446933 30.5152-30.446933 0-60.893866L250.538667 571.392c-11.0592-11.0592-13.858133-16.5888 0-30.446933 33.3824-33.1776 30.583467-33.1776 63.8976 0 11.127467 11.0592 24.9856 22.1184 33.314133 33.1776 19.456 24.917333 33.3824 24.917333 52.770133 0 13.9264-16.5888 19.456-24.849067 0-38.7072-13.858133-11.0592-27.716267-27.648-41.642666-38.7072-33.314133-33.1776-33.314133-33.1776 2.730666-66.423467 11.195733-8.260267 13.9264-11.0592 25.053867 0 24.9856 27.716267 52.770133 52.565333 77.824 80.213333 16.5888 16.5888 27.716267 24.917333 47.104 2.730667 16.725333-19.319467 27.8528-27.579733 2.8672-49.698133-27.784533-22.186667-50.039467-49.834667-77.824-74.683734-13.858133-13.858133-11.0592-19.387733 0-30.446933 30.583467-27.648 27.784533-30.446933 58.368 0l49.9712 49.834667c8.328533 10.990933 16.657067 8.192 24.9856 0 36.181333-30.446933 36.181333-30.446933 0-63.624534-13.858133-13.858133-27.784533-30.446933-44.373333-44.305066-22.254933-19.319467-2.798933-27.648 8.260266-35.908267 11.127467-8.328533 16.725333-33.245867 38.912-11.0592l83.285334 82.944c22.254933 27.648 30.583467 0 44.509866-8.328533 16.657067-11.0592 22.186667-22.1184 2.730667-38.7072-27.784533-22.1184-49.9712-46.967467-74.9568-74.683734-8.328533-8.260267-24.9856-13.789867-16.657067-24.849066 8.328533-13.858133 19.387733-27.648 38.912-27.648 13.858133 0 22.186667 5.461333 30.5152 13.789866l166.638934 165.956267c22.254933 24.917333 22.254933 41.506133-2.730667 63.624533z" fill="#666666" p-id="4499"></path></svg>