<?xml version="1.0" standalone="no"?><!DOCTYPE svg PUBLIC "-//W3C//DTD SVG 1.1//EN" "http://www.w3.org/Graphics/SVG/1.1/DTD/svg11.dtd"><svg t="1716486303009" class="icon" viewBox="0 0 1025 1024" version="1.1" xmlns="http://www.w3.org/2000/svg" p-id="8592" xmlns:xlink="http://www.w3.org/1999/xlink" width="500.48828125" height="500"><path d="M358.5 1021.5c-52.93 0-96-43.07-96-96 0-13.12 2.6-25.84 7.74-37.81l0.12-0.27-141.99-184.66-0.34 0.11a95.806 95.806 0 0 1-29.53 4.64c-52.93 0-96-43.07-96-96s43.07-96 96-96c7.56 0 15.09 0.89 22.41 2.64l0.36 0.09 213.67-370.08-0.16-0.25c-9.34-15.12-14.28-32.54-14.28-50.39 0-52.93 43.07-96 96-96 40.36 0 76.66 25.5 90.34 63.46l0.09 0.26 300.27 61.72 0.19-0.26c18.01-25.16 47.21-40.18 78.11-40.18 52.93 0 96 43.07 96 96 0 36.49-20.26 69.36-52.88 85.79l-0.31 0.16 41.76 393.5 0.25 0.12a96.184 96.184 0 0 1 39.11 34.79c9.85 15.41 15.06 33.27 15.06 51.65 0 52.93-43.07 96-96 96-31.18 0-60.53-15.24-78.52-40.76l-0.22-0.31-396.7 138.78-0.05 0.29c-8.2 45.76-47.94 78.97-94.5 78.97z m0-192c34.03 0 64.82 17.44 82.36 46.66l0.21 0.35L832.93 739.4l0.03-0.32c3.81-39.11 31.82-72.49 69.7-83.05l0.41-0.11-40.34-380.14-0.34-0.08c-39.73-9.82-68.86-43.81-72.49-84.56l-0.03-0.37-283.9-58.36-0.15 0.39c-7 17.7-19.01 32.81-34.72 43.69-16.08 11.13-34.96 17.02-54.59 17.02-9.75 0-19.37-1.46-28.59-4.33l-0.38-0.12L176.19 555.1l0.19 0.26c11.86 16.42 18.12 35.83 18.12 56.14 0 17.74-4.88 35.06-14.11 50.11l-0.18 0.29 136.28 177.25 0.37-0.18c13.04-6.28 27.05-9.47 41.64-9.47z" p-id="8593"></path><path d="M416.5 2c40.15 0 76.26 25.37 89.87 63.13l0.19 0.53 0.55 0.11 299.68 61.6 0.64 0.13 0.38-0.53c8.66-12.1 20.19-22.15 33.34-29.06C854.71 90.77 870.06 87 885.5 87c52.66 0 95.5 42.84 95.5 95.5 0 18.03-5.05 35.58-14.6 50.77a95.81 95.81 0 0 1-38 34.57l-0.62 0.31 0.07 0.69 41.7 392.88 0.06 0.55 0.5 0.24c15.91 7.71 29.36 19.68 38.91 34.61 9.8 15.33 14.98 33.09 14.98 51.38 0 52.66-42.84 95.5-95.5 95.5-31.02 0-60.22-15.16-78.11-40.55l-0.43-0.62-0.71 0.25-396.09 138.59-0.55 0.19-0.1 0.57c-3.9 21.77-15.4 41.67-32.39 56.03-17.2 14.54-39.08 22.54-61.62 22.54-52.66 0-95.5-42.84-95.5-95.5 0-13.05 2.59-25.71 7.7-37.61l0.23-0.54-0.36-0.46-141.59-184.16-0.43-0.56-0.67 0.22A95.43 95.43 0 0 1 98.5 707C45.84 707 3 664.16 3 611.5S45.84 516 98.5 516c7.52 0 15.01 0.88 22.29 2.62l0.73 0.17 0.37-0.65 213.33-369.5 0.3-0.52-0.31-0.51c-9.29-15.04-14.2-32.37-14.2-50.12C321 44.84 363.84 2 416.5 2m0 191c-9.7 0-19.27-1.45-28.44-4.31l-0.76-0.24-0.4 0.69-210.98 365.43-0.32 0.56 0.38 0.52C187.77 571.99 194 591.3 194 611.5c0 17.64-4.85 34.88-14.03 49.85l-0.36 0.59 0.42 0.55 135.82 176.65 0.5 0.64 0.73-0.35c12.97-6.26 26.91-9.43 41.42-9.43 16.79 0 33.3 4.42 47.75 12.78a96.095 96.095 0 0 1 34.18 33.63l0.42 0.7 0.77-0.27 391.17-136.87 0.6-0.21 0.06-0.64c1.88-19.33 9.53-37.41 22.11-52.28 12.44-14.71 28.77-25.2 47.22-30.35l0.82-0.23-0.09-0.84-40.26-379.37-0.07-0.7-0.68-0.17c-39.52-9.77-68.5-43.58-72.11-84.12l-0.07-0.74-0.73-0.15-283.12-58.2-0.82-0.17-0.31 0.78c-6.96 17.61-18.91 32.64-34.54 43.46-15.99 11.11-34.77 16.96-54.3 16.96m0-192C363.2 1 320 44.2 320 97.5c0 18.58 5.26 35.93 14.35 50.65l-213.33 369.5A96.669 96.669 0 0 0 98.5 515C45.2 515 2 558.2 2 611.5S45.2 708 98.5 708a96.5 96.5 0 0 0 29.69-4.66l141.59 184.15c-5 11.66-7.78 24.51-7.78 38.01 0 53.3 43.2 96.5 96.5 96.5 47.46 0 86.91-34.25 94.99-79.39l396.08-138.59C867.04 828.81 895.88 845 928.5 845c53.3 0 96.5-43.2 96.5-96.5 0-38.22-22.23-71.26-54.46-86.88l-41.7-392.88C960.37 252.86 982 220.21 982 182.5c0-53.3-43.2-96.5-96.5-96.5-32.37 0-61.01 15.94-78.51 40.39l-299.68-61.6C493.91 27.59 458.31 1 416.5 1z m0 193c40.77 0 75.63-25.28 89.77-61.03l283.12 58.2c3.69 41.4 33.52 75.27 72.87 85l40.26 379.37c-37.74 10.53-66.15 43.41-70.06 83.49L441.29 875.9c-16.87-28.1-47.63-46.9-82.79-46.9-15 0-29.2 3.42-41.86 9.53L180.82 661.88c8.99-14.66 14.18-31.91 14.18-50.38 0-21.07-6.76-40.56-18.22-56.43l210.98-365.42c9.08 2.83 18.73 4.35 28.74 4.35z" p-id="8594"></path></svg>