<?xml version="1.0" standalone="no"?><!DOCTYPE svg PUBLIC "-//W3C//DTD SVG 1.1//EN" "http://www.w3.org/Graphics/SVG/1.1/DTD/svg11.dtd"><svg t="1716486019016" class="icon" viewBox="0 0 1024 1024" version="1.1" xmlns="http://www.w3.org/2000/svg" p-id="3954" xmlns:xlink="http://www.w3.org/1999/xlink" width="500" height="500"><path d="M570.806857 37.376L19.894857 622.665143A73.142857 73.142857 0 0 0 0 672.768V914.285714a73.142857 73.142857 0 0 0 73.142857 73.142857h240.201143a73.142857 73.142857 0 0 0 53.248-23.04l550.034286-584.338285a73.142857 73.142857 0 0 0-1.572572-101.851429l-240.822857-240.822857a73.142857 73.142857 0 0 0-103.424 0zM73.142857 672.804571L622.518857 89.088l240.822857 240.822857L313.307429 914.285714H73.142857v-241.481143z" fill="#515151" p-id="3955"></path><path d="M501.284571 193.572571l292.571429 292.571429-51.712 51.712-292.571429-292.571429zM893.988571 591.286857a36.571429 36.571429 0 0 1 48.164572 6.729143l2.56 3.401143 73.142857 109.714286a36.571429 36.571429 0 0 1-26.331429 56.685714L987.428571 768h-292.571428a36.571429 36.571429 0 0 1-4.278857-72.886857L694.857143 694.857143h224.219428l-35.218285-52.845714a36.571429 36.571429 0 0 1 6.729143-48.164572l3.401142-2.56zM788.333714 1017.856a36.571429 36.571429 0 0 1-48.128-6.729143l-2.56-3.401143-73.142857-109.714285a36.571429 36.571429 0 0 1 26.331429-56.685715l4.096-0.182857h292.571428a36.571429 36.571429 0 0 1 4.242286 72.886857l-4.242286 0.256H763.245714l35.218286 52.845715a36.571429 36.571429 0 0 1-6.729143 48.164571l-3.437714 2.56z" fill="#515151" p-id="3956"></path></svg>