<?xml version="1.0" standalone="no"?><!DOCTYPE svg PUBLIC "-//W3C//DTD SVG 1.1//EN" "http://www.w3.org/Graphics/SVG/1.1/DTD/svg11.dtd"><svg t="1716486260247" class="icon" viewBox="0 0 1024 1024" version="1.1" xmlns="http://www.w3.org/2000/svg" p-id="7262" xmlns:xlink="http://www.w3.org/1999/xlink" width="500" height="500"><path d="M139.636364 512m-93.090909 0a93.090909 93.090909 0 1 0 186.181818 0 93.090909 93.090909 0 1 0-186.181818 0Z" fill="#000000" p-id="7263"></path><path d="M372.363636 791.272727m-93.090909 0a93.090909 93.090909 0 1 0 186.181818 0 93.090909 93.090909 0 1 0-186.181818 0Z" fill="#FFFFFF" p-id="7264"></path><path d="M698.181818 232.727273m-93.090909 0a93.090909 93.090909 0 1 0 186.181818 0 93.090909 93.090909 0 1 0-186.181818 0Z" fill="#000000" p-id="7265"></path><path d="M884.363636 651.636364m-93.090909 0a93.090909 93.090909 0 1 0 186.181818 0 93.090909 93.090909 0 1 0-186.181818 0Z" fill="#000000" p-id="7266"></path></svg>