<?xml version="1.0" standalone="no"?><!DOCTYPE svg PUBLIC "-//W3C//DTD SVG 1.1//EN" "http://www.w3.org/Graphics/SVG/1.1/DTD/svg11.dtd"><svg t="1716486281378" class="icon" viewBox="0 0 1025 1024" version="1.1" xmlns="http://www.w3.org/2000/svg" p-id="7581" xmlns:xlink="http://www.w3.org/1999/xlink" width="500.48828125" height="500"><path d="M541.18144 754.986667a100.437333 100.437333 0 0 1 37.802667-80l-108.885334-217.6a64.298667 64.298667 0 0 1-19.114666 2.432 78.890667 78.890667 0 0 1-39.552-10.197334l-239.146667 264.746667a101.376 101.376 0 0 1 8.533333 40.746667 90.581333 90.581333 0 1 1-90.24-98.474667 83.2 83.2 0 0 1 51.584 17.962667l234.666667-256.938667a109.056 109.056 0 0 1-16-56.234667 90.538667 90.538667 0 1 1 180.437333 0 102.656 102.656 0 0 1-32.853333 76.117334l110.165333 220.074666c4.266667-0.426667 8.533333-0.938667 12.8-0.938666a74.325333 74.325333 0 0 1 34.133334 7.808L866.386773 376.96a103.381333 103.381333 0 0 1-22.229333-64.469333 90.368 90.368 0 1 1 90.24 98.432 88.533333 88.533333 0 0 1-30.250667-5.845334l-207.104 283.648a101.845333 101.845333 0 0 1 24.021334 66.432 90.368 90.368 0 1 1-180.010667 0z" fill="#555555" p-id="7582"></path></svg>