<?xml version="1.0" standalone="no"?><!DOCTYPE svg PUBLIC "-//W3C//DTD SVG 1.1//EN" "http://www.w3.org/Graphics/SVG/1.1/DTD/svg11.dtd"><svg t="1716486356964" class="icon" viewBox="0 0 1029 1024" version="1.1" xmlns="http://www.w3.org/2000/svg" p-id="10618" xmlns:xlink="http://www.w3.org/1999/xlink" width="502.44140625" height="500"><path d="M931.590244 1023.500488c-20.90958 0-40.780176-6.613541-57.463883-19.111337-16.134244-12.088195-28.27239-29.301385-34.196605-48.472663l-0.109893-0.349659h-645.669463l-0.109893 0.349659c-5.914224 19.161288-18.062361 36.374478-34.196605 48.472663-16.683707 12.507785-36.554302 19.111337-57.463882 19.111337-52.878361 0-95.906341-43.02798-95.906342-95.906342 0-38.182712 22.627902-72.708995 57.643707-87.964097l0.299708-0.129873V188.116293l-0.319688-0.119883c-17.932488-6.873288-33.257522-18.8416-44.316722-34.636176C8.481717 137.19602 2.497561 118.194576 2.497561 98.403902c0-52.878361 43.02798-95.906341 95.906341-95.906341 40.420527 0 76.715083 25.565034 90.321796 63.607883l0.119882 0.329678h648.306888l0.119883-0.329678C850.879063 28.062595 887.17362 2.497561 927.594146 2.497561c52.878361 0 95.906341 43.02798 95.906342 95.906341 0 39.131785-23.407141 73.987746-59.631766 88.803278l-0.309698 0.129874v649.815414l0.329678 0.119883c38.042849 13.606712 63.607883 49.901268 63.607883 90.321795 0 52.878361-43.02798 95.906341-95.906341 95.906342zM190.354107 125.73721c-9.360859 31.5392-34.885932 56.51481-66.604956 65.186341l-0.369639 0.099903v642.972097l0.38962 0.089912c32.018732 7.282888 58.5728 31.11961 69.302322 62.209249l0.119883 0.339668h647.60757l0.119883-0.339668c10.080156-29.191493 33.757034-51.859356 63.348137-60.64078l0.359649-0.109893V191.532956l-0.37963-0.089912c-32.708059-8.18201-58.99239-33.367415-68.593014-65.705834l-0.109893-0.359649H190.45401l-0.099903 0.359649z" p-id="10619"></path><path d="M927.594146 2.997073c52.608624 0 95.406829 42.798205 95.40683 95.406829 0 19.321132-5.74439 37.922966-16.613776 53.797464-10.609639 15.504859-25.37522 27.45319-42.708293 34.536273l-0.619395 0.249756v650.504742l0.659356 0.239765c37.843044 13.53678 63.278205 49.641522 63.278205 89.852254 0 52.608624-42.798205 95.406829-95.406829 95.406829-20.799688 0-40.56039-6.57358-57.164176-19.011434-16.054322-12.028254-28.132527-29.151532-34.01678-48.212917l-0.219786-0.709307H193.790751l-0.219785 0.709307c-5.884254 19.061385-17.962459 36.184663-34.016781 48.212917-16.593795 12.437854-36.364488 19.011434-57.164175 19.011434C49.791376 1023.000976 6.993171 980.202771 6.993171 927.594146c0-37.982907 22.50802-72.329366 57.344-87.504546l0.599414-0.259746v-652.06322l-0.639375-0.249756c-17.842576-6.833327-33.087688-18.751688-44.086947-34.456351C8.951259 136.996215 2.997073 118.094673 2.997073 98.403902 2.997073 45.795278 45.795278 2.997073 98.403902 2.997073c40.210732 0 76.315473 25.425171 89.852254 63.278205l0.239766 0.659356H837.492137l0.239765-0.659356C851.278673 28.422244 887.383415 2.997073 927.594146 2.997073M192.831688 897.123902h648.316878l0.229775-0.669346c10.020215-29.041639 33.57721-51.58962 63.018459-60.321093l0.719298-0.209795V191.143337l-0.759259-0.189815c-32.538224-8.142049-58.682693-33.18759-68.233366-65.366166l-0.209795-0.719297H190.084371l-0.209795 0.719297c-4.585522 15.454907-13.137171 29.621073-24.725854 40.96999-11.598673 11.358907-25.964644 19.610849-41.539434 23.866693l-0.739278 0.199805v643.751336l0.779239 0.179825c15.774595 3.586498 30.490224 11.239024 42.568429 22.1184 12.008273 10.819434 21.129366 24.56601 26.374244 39.761171l0.239766 0.689326M927.594146 1.998049c-41.849132 0-77.464351 26.673951-90.791336 63.937561H189.195239C175.868254 28.672 140.253034 1.998049 98.403902 1.998049 45.155902 1.998049 1.998049 45.155902 1.998049 98.403902c0 41.099863 25.724878 76.1856 61.939512 90.052059v650.714537c-34.096702 14.855493-57.943415 48.852293-57.943415 88.423648 0 53.248 43.157854 96.405854 96.405854 96.405854 43.327688 0 79.981893-28.592078 92.130029-67.933659h644.930186c12.148137 39.34158 48.802341 67.933659 92.130029 67.933659 53.248 0 96.405854-43.157854 96.405854-96.405854 0-41.849132-26.673951-77.464351-63.937561-90.791336V187.666732c35.165659-14.375961 59.941463-48.922224 59.941463-89.26283C1024 45.155902 980.842146 1.998049 927.594146 1.998049zM193.550985 896.124878c-10.759493-31.179551-37.073795-55.116176-69.671961-62.528937V191.403083c32.098654-8.771434 57.513834-33.707083 66.954615-65.52601h644.340761c9.640585 32.468293 35.914927 57.783571 68.952663 66.045503v643.241834c-29.800898 8.841366-53.577678 31.709034-63.677814 60.960468H193.550985z" p-id="10620"></path></svg>