<?xml version="1.0" standalone="no"?><!DOCTYPE svg PUBLIC "-//W3C//DTD SVG 1.1//EN" "http://www.w3.org/Graphics/SVG/1.1/DTD/svg11.dtd"><svg t="1716917404231" class="icon" viewBox="0 0 1024 1024" version="1.1" xmlns="http://www.w3.org/2000/svg" p-id="13329" xmlns:xlink="http://www.w3.org/1999/xlink" width="500" height="500"><path d="M534.072889 11.036444l426.552889 479.402667a30.833778 30.833778 0 0 1 0 43.576889l-426.552889 479.345778a30.833778 30.833778 0 0 1-43.576889 0L63.943111 534.016a30.833778 30.833778 0 0 1 0-43.576889L490.496 11.036444a30.833778 30.833778 0 0 1 43.576889 0z m-6.257778 115.882667a22.016 22.016 0 0 0-31.061333 0l-325.290667 369.777778a22.016 22.016 0 0 0 0 31.061333l325.290667 370.005334a22.016 22.016 0 0 0 31.118222 0l333.482667-370.005334a22.016 22.016 0 0 0 0-31.118222z" fill="#515151" p-id="13330"></path></svg>