<?xml version="1.0" standalone="no"?><!DOCTYPE svg PUBLIC "-//W3C//DTD SVG 1.1//EN" "http://www.w3.org/Graphics/SVG/1.1/DTD/svg11.dtd"><svg t="1716486518863" class="icon" viewBox="0 0 1088 1024" version="1.1" xmlns="http://www.w3.org/2000/svg" p-id="16483" xmlns:xlink="http://www.w3.org/1999/xlink" width="531.25" height="500"><path d="M858.432 170.688a85.312 85.312 0 0 1-166.784 25.6c-52.8 0.512-117.312 3.456-181.568 12.544-75.328 10.624-148.032 29.248-201.152 60.224C256.576 299.52 225.92 339.904 225.92 395.52c0 22.72 7.552 37.888 20.032 49.408 13.44 12.352 34.304 22.016 63.104 28.928 58.112 13.888 136.96 14.08 220.288 14.08h2.368c80.448 0 165.12 0 229.76 15.36 32.896 7.872 63.36 20.352 85.952 41.152 23.488 21.632 36.48 50.752 36.48 87.04 0 79.232-47.232 134.144-110.784 170.88-62.976 36.48-145.152 57.216-224.768 69.248a1583.104 1583.104 0 0 1-209.92 16 85.376 85.376 0 1 1 5.504-51.328 1519.68 1519.68 0 0 0 196.8-15.36c77.312-11.584 152-31.232 206.72-62.848 54.08-31.232 85.312-71.872 85.312-126.592 0-22.72-7.552-37.888-20.032-49.408-13.44-12.352-34.304-22.08-63.168-28.928-58.112-13.888-136.896-14.08-220.224-14.08h-2.432c-80.448 0-165.12 0-229.76-15.424-32.832-7.872-63.36-20.288-85.952-41.088-23.488-21.696-36.48-50.752-36.48-87.04 0-79.488 45.888-134.336 108.352-170.688 61.632-35.904 142.08-55.68 219.776-66.688a1464.32 1464.32 0 0 1 188.736-12.992 85.376 85.376 0 0 1 166.784 25.536z" fill="#2c2c2c" p-id="16484" data-spm-anchor-id="a313x.search_index.0.i22.7a7a3a81M0uLxn" class="selected"></path></svg>