<?xml version="1.0" standalone="no"?><!DOCTYPE svg PUBLIC "-//W3C//DTD SVG 1.1//EN" "http://www.w3.org/Graphics/SVG/1.1/DTD/svg11.dtd"><svg t="1716626409125" class="icon" viewBox="0 0 1024 1024" version="1.1" xmlns="http://www.w3.org/2000/svg" p-id="6634" xmlns:xlink="http://www.w3.org/1999/xlink" width="500" height="500"><path d="M935.68 360l-271.36-271.68 22.4-22.72A192 192 0 0 1 960 337.28z m-177.92-268.8l175.04 175.36a128 128 0 0 0-175.04-175.36zM603.52 154.432l54.848-32.96 192 319.552-54.848 32.96zM9.6 1014.4l95.04-357.12 62.08 16.32-66.88 250.88 251.52-66.24 16.32 61.76L9.6 1014.4zM419.52 873.6l-75.2-193.28-193.28-75.52L548.16 203.84l45.44 45.12L264.96 580.8l128.64 50.24 50.24 128.32 266.88-265.28 45.12 45.44L419.52 873.6z" fill="#2A2A3B" p-id="6635"></path></svg>