<?xml version="1.0" standalone="no"?><!DOCTYPE svg PUBLIC "-//W3C//DTD SVG 1.1//EN" "http://www.w3.org/Graphics/SVG/1.1/DTD/svg11.dtd"><svg t="1716713378306" class="icon" viewBox="0 0 1024 1024" version="1.1" xmlns="http://www.w3.org/2000/svg" p-id="8405" xmlns:xlink="http://www.w3.org/1999/xlink" width="500" height="500"><path d="M869.7 721.5V302.2c51.7-13.4 90-60.4 90-116.2 0-66.2-53.8-120-120-120-55.8 0-102.8 38.3-116.2 90H303.4C290 104.3 243 66 187.2 66c-66.2 0-120 53.8-120 120 0 55.8 38.3 102.8 90 116.2v167.5l-0.5 0.5 0.5 0.5v250.7c-51.7 13.4-90 60.4-90 116.2 0 66.2 53.8 120 120 120 55.8 0 102.8-38.3 116.2-90h420.1c13.4 51.7 60.4 90 116.2 90 66.2 0 120-53.8 120-120 0-55.7-38.3-102.8-90-116.1z m-30-595.5c33.1 0 60 26.9 60 60s-26.9 60-60 60-60-26.9-60-60 26.9-60 60-60z m-30 401.5L529.5 807.7h-92.7l372.9-372.9v92.7z m-73.8-281.3l-488 488c-0.3-0.2-0.5-0.3-0.8-0.5-0.1 0-0.1-0.1-0.2-0.1-1-0.6-2-1.1-3-1.7-0.3-0.2-0.6-0.3-1-0.5l-2.4-1.2c-0.3-0.1-0.6-0.3-0.9-0.4-1.1-0.5-2.1-1-3.2-1.5-0.2-0.1-0.4-0.2-0.7-0.3-0.9-0.4-1.8-0.8-2.7-1.1-0.3-0.1-0.7-0.3-1-0.4-0.9-0.4-1.8-0.7-2.7-1-0.2-0.1-0.5-0.2-0.7-0.3-1.1-0.4-2.2-0.8-3.4-1.2l-0.9-0.3c-0.9-0.3-1.7-0.6-2.6-0.8-0.3-0.1-0.7-0.2-1-0.3l-3.3-0.9h-0.2v-49.3L673.3 216h50.2c2.8 10.7 7 20.8 12.4 30.2zM217.2 587.3v-92.7L495.7 216h92.7L217.2 587.3z m-90-401.3c0-33.1 26.9-60 60-60s60 26.9 60 60-26.9 60-60 60-60-26.9-60-60z m90 116.2c42.1-10.9 75.3-44.1 86.2-86.2h107.5L217.2 409.7V302.2z m-30 595.5c-33.1 0-60-26.9-60-60s26.9-60 60-60 60 26.9 60 60-26.9 60-60 60z m116.2-90.1c-0.3-1.1-0.6-2.3-0.9-3.4-0.1-0.3-0.2-0.7-0.3-1-0.3-0.9-0.6-1.8-0.8-2.7l-0.3-0.9c-0.4-1.1-0.8-2.3-1.2-3.4-0.1-0.2-0.2-0.4-0.3-0.7-0.3-0.9-0.7-1.8-1.1-2.7-0.1-0.3-0.3-0.7-0.4-1l-1.2-2.7-0.3-0.6c-0.5-1.1-1-2.2-1.5-3.2-0.1-0.3-0.3-0.6-0.4-0.9l-1.2-2.4c-0.2-0.3-0.3-0.6-0.5-0.9-0.6-1-1.1-2.1-1.7-3.1 0 0 0-0.1-0.1-0.1-0.3-0.5-0.5-0.9-0.8-1.4L778 288.9c9.8 5.9 20.4 10.4 31.7 13.3v47.7L352 807.7l-48.6-0.1c0 0.1 0 0 0 0z m420.1 0.1H614.4l195.3-195.3v109.1c-42.1 10.9-75.3 44.1-86.2 86.2z m116.2 90c-33.1 0-60-26.9-60-60s26.9-60 60-60 60 26.9 60 60-26.9 60-60 60z" p-id="8406" fill="#515151"></path></svg>