<?xml version="1.0" standalone="no"?><!DOCTYPE svg PUBLIC "-//W3C//DTD SVG 1.1//EN" "http://www.w3.org/Graphics/SVG/1.1/DTD/svg11.dtd"><svg t="1716536918451" class="icon" viewBox="0 0 1024 1024" version="1.1" xmlns="http://www.w3.org/2000/svg" p-id="9249" xmlns:xlink="http://www.w3.org/1999/xlink" width="500" height="500"><path d="M646.91735404 609.49244678l125.56445881 269.27500719c7.055176 15.12665089 0.50078496 33.09599286-14.611137 40.15116894l-109.52461185 51.06533479c-15.12665089 7.055176-33.09599286 0.51551389-40.15116892-14.61113704l-128.4218788-275.40225825-157.89454545 157.89454534c-11.797904 11.797904-30.91610545 11.797904-42.71400927 0.014729a30.22384394 30.22384394 0 0 1-8.85211037-21.37173373V51.41181969c0-16.68792153 13.52119332-30.20911497 30.20911493-30.20911503 7.51177415 0 14.75842673 2.7985041 20.3259771 7.85054047l562.27838313 511.16886141c12.34287587 11.22347424 13.2560719 30.3269467 2.03259761 42.66982262a30.21942527 30.21942527 0 0 1-20.03139749 9.79476423L646.91735404 609.49244678z" fill="#161617" p-id="9250"></path></svg>